<?xml version="1.0" standalone="no"?>
<!DOCTYPE svg PUBLIC "-//W3C//DTD SVG 20010904//EN"
 "http://www.w3.org/TR/2001/REC-SVG-20010904/DTD/svg10.dtd">
<svg version="1.0" xmlns="http://www.w3.org/2000/svg"
 width="368.000000pt" height="137.000000pt" viewBox="0 0 368.000000 137.000000"
 preserveAspectRatio="xMidYMid meet">
<metadata>
Created by potrace 1.16, written by Peter Selinger 2001-2019
</metadata>
<g transform="translate(0.000000,137.000000) scale(0.100000,-0.100000)"
fill="#8a6464" stroke="none">
<path d="M214 1181 c-103 -59 -183 -178 -203 -299 -21 -129 27 -273 117 -353
46 -41 182 -114 201 -107 5 1 -17 42 -49 90 -73 109 -100 190 -100 302 0 82
12 152 27 167 6 6 268 -329 426 -545 13 -18 15 -18 57 4 65 33 142 116 180
194 59 120 53 278 -15 386 -51 81 -167 164 -259 186 l-29 7 42 -54 c84 -105
131 -228 131 -340 0 -73 -16 -165 -30 -174 -5 -3 -105 123 -222 279 -117 157
-215 285 -218 285 -3 1 -28 -12 -56 -28z"/>
<path d="M2644 996 c-39 -17 -44 -31 -44 -115 0 -101 7 -105 182 -111 157 -6
172 -12 152 -67 l-9 -28 -158 -3 -157 -3 0 -34 0 -35 185 0 c184 0 186 0 210
25 22 21 25 33 25 94 0 59 -4 74 -24 98 -24 28 -26 28 -168 33 -140 5 -143 5
-146 28 -7 47 9 52 174 52 l154 0 0 40 0 40 -172 0 c-123 -1 -182 -5 -204 -14z"/>
<path d="M3100 805 l0 -205 50 0 50 0 0 205 0 205 -50 0 -50 0 0 -205z"/>
<path d="M3290 997 c-33 -17 -50 -53 -50 -109 0 -53 15 -93 39 -105 9 -4 79
-10 156 -13 l140 -5 3 -33 c6 -58 -4 -62 -169 -62 l-149 0 0 -35 0 -35 181 0
c99 0 189 4 199 10 33 18 49 94 34 169 -11 55 -41 65 -194 71 l-135 5 0 35 0
35 158 3 157 3 0 39 0 40 -172 0 c-119 0 -181 -4 -198 -13z"/>
<path d="M1046 970 c-32 -39 -46 -89 -46 -170 0 -83 15 -138 48 -172 l26 -28
178 0 178 0 0 35 0 35 -153 0 c-170 0 -182 4 -189 65 l-3 30 173 3 172 2 0 40
0 40 -170 0 -170 0 0 23 c0 50 23 57 188 57 l152 0 0 35 0 35 -179 0 -179 0
-26 -30z"/>
<path d="M1490 794 l0 -205 53 3 52 3 0 123 c0 67 3 122 7 122 4 0 41 -47 83
-105 l77 -105 76 105 c42 57 80 104 85 104 4 1 7 -55 7 -124 l0 -125 50 0 50
0 0 205 0 205 -53 0 -53 0 -78 -105 c-43 -58 -82 -105 -86 -103 -4 2 -42 49
-84 106 l-76 102 -55 0 -55 0 0 -206z"/>
<path d="M2167 989 c-76 -44 -88 -290 -17 -361 l28 -28 181 0 181 0 0 35 0 35
-159 0 c-175 0 -178 1 -188 64 l-6 36 172 0 171 0 0 40 0 40 -171 0 -171 0 6
28 c12 48 27 52 193 52 l153 0 0 35 0 35 -177 0 c-103 0 -185 -5 -196 -11z"/>
<path d="M2325 470 c-535 -25 -993 -91 -1644 -236 -68 -15 -119 -30 -114 -31
6 -2 78 7 160 21 391 68 840 128 1173 158 230 21 1028 17 1250 -5 169 -18 427
-57 497 -76 l33 -9 0 52 0 53 -72 12 c-354 55 -879 80 -1283 61z"/>
</g>
</svg>
